<svg width="459" height="95" viewBox="0 0 459 95" fill="none" xmlns="http://www.w3.org/2000/svg">
<path d="M30.8067 49.9571C32.3772 49.9571 33.6504 48.683 33.6504 47.1114C33.6504 45.5398 32.3772 44.2657 30.8067 44.2657C29.2362 44.2657 27.963 45.5398 27.963 47.1114C27.963 48.683 29.2362 49.9571 30.8067 49.9571Z" fill="#045EA8"/>
<path fill-rule="evenodd" clip-rule="evenodd" d="M24.4873 47.1116C24.4873 45.3726 25.2772 43.7917 26.3831 42.5269C24.3293 39.0489 21.4856 36.5194 16.9041 36.2032H8.05712H1.42184C0.947896 37.626 0.947896 38.1003 0.631931 39.8393C0.157983 42.2107 0 44.5821 0 47.1116C0 49.6411 0.157983 52.0125 0.631931 54.542C0.947896 56.281 1.10588 56.7552 1.42184 58.1781H8.05712H17.0621C21.4856 57.8619 24.3293 55.1743 26.5411 51.8544C25.2772 50.5896 24.4873 48.8506 24.4873 47.1116ZM94.1577 47.1116C94.1577 38.5746 91.63 30.1957 87.6804 23.2396C66.9847 15.335 41.0755 23.0815 35.8621 43.0012C36.81 44.1078 37.2839 45.5307 37.2839 47.1116C37.2839 48.6925 36.652 50.1154 35.8621 51.222C41.0755 71.2998 67.1426 79.0463 87.6804 70.9836C91.7879 64.0275 94.1577 55.6486 94.1577 47.1116ZM47.0788 94.2232C27.647 94.2232 9.32098 81.7339 3.00167 63.237H8.05712H18.326C25.1192 63.237 28.4369 58.8105 30.8066 53.5934H30.9646H31.1226C31.2806 54.542 31.7545 55.6486 32.2285 56.5972C42.3394 78.7301 65.8788 81.1015 83.8888 76.833C73.6199 88.6899 63.1931 93.5908 47.0788 94.2232ZM47.0788 0C63.1931 0.790463 73.6199 5.69133 83.7308 17.5483C65.7208 13.1217 42.1814 15.6512 32.0705 37.7841C31.7545 38.5746 31.1226 39.8393 30.9646 40.7879H30.8066H30.6486C28.2789 35.4127 24.9613 31.1442 18.168 31.1442H8.05712H3.00167C9.32098 12.4893 27.647 0 47.0788 0Z" fill="#0A2135"/>
<path fill-rule="evenodd" clip-rule="evenodd" d="M139.689 74.1469C150.245 74.1469 158.881 68.1452 163.44 59.2626L154.323 54.4612C151.684 59.9828 146.646 64.3041 139.449 64.3041C129.853 64.3041 122.656 56.6218 122.656 47.2591C122.656 37.6563 129.853 30.2141 139.689 30.2141C146.406 30.2141 150.965 33.5751 153.843 39.0967L162.72 33.5751C158.162 25.6528 149.525 20.6113 139.689 20.6113C124.575 20.6113 112.58 31.8946 112.58 47.7392C112.82 62.1434 123.376 74.1469 139.689 74.1469ZM167.518 73.4267H177.354V20.8514H167.518V73.4267ZM200.624 74.1469C210.94 74.1469 219.337 65.7445 219.337 55.4215C219.337 45.0985 210.94 36.696 200.624 36.696C190.309 36.696 181.912 45.0985 181.912 55.4215C181.912 65.7445 190.309 74.1469 200.624 74.1469ZM200.624 64.7842C195.587 64.7842 191.508 60.4629 191.508 55.4215C191.508 50.38 195.347 46.0587 200.624 46.0587C205.662 46.0587 209.741 50.38 209.741 55.4215C209.741 60.703 205.662 64.7842 200.624 64.7842ZM237.57 74.1469C241.648 74.1469 245.246 72.2264 247.406 69.3455V73.4267H257.242V37.4162H247.406V57.102C247.406 63.1037 244.287 65.7445 240.448 65.7445C236.13 65.7445 233.731 62.8636 233.731 58.0622V37.4162H223.655V59.5027C223.895 68.8654 229.173 74.1469 237.57 74.1469ZM279.313 74.1469C284.111 74.1469 287.709 72.2264 290.108 69.3455V73.4267H299.944V20.8514H290.108V41.0173C287.709 38.3765 284.111 36.696 279.313 36.696C271.156 36.696 261.8 42.6978 261.8 55.4215C262.04 68.1452 271.636 74.1469 279.313 74.1469ZM281.232 65.2643C275.714 65.2643 271.636 61.1831 271.636 55.4215C271.636 49.8999 275.714 45.8187 281.232 45.8187C286.51 45.8187 290.348 50.1399 290.348 55.4215C290.588 60.703 286.51 65.2643 281.232 65.2643ZM306.182 73.4267H337.369V63.8239H316.258V51.8204H337.369V42.2176H316.258V30.4542H337.369V20.8514H306.182V73.4267ZM340.488 73.4267H352.483L359.92 62.8636L367.597 73.4267H379.592L366.158 55.1814L378.632 37.4162H367.117L360.16 47.4992L353.203 37.4162H341.208L353.922 55.1814L340.488 73.4267ZM381.511 46.2988H387.749V57.8222C387.749 69.5856 391.587 73.4267 402.863 73.4267H404.302V64.3041C398.305 64.3041 397.585 63.3438 397.585 57.8222V46.2988H404.302V37.4162H397.585V23.4922L387.749 29.0138V37.4162H381.511V46.2988ZM426.133 74.1469C434.05 74.1469 439.808 70.0657 442.926 64.5441L435.01 59.7427C433.33 63.1037 430.212 65.2643 426.133 65.2643C420.855 65.2643 417.737 62.6236 416.537 58.7824H444.366V55.1814C444.366 44.8584 436.689 36.4559 425.893 36.4559C415.578 36.4559 407.181 44.8584 407.181 55.1814C407.181 65.5044 414.858 74.1469 426.133 74.1469ZM425.893 45.3385C429.972 45.3385 433.09 47.2591 434.53 51.1002H417.017C418.696 47.7392 421.815 45.3385 425.893 45.3385ZM449.164 73.4267H459V20.8514H449.164V73.4267Z" fill="#045EA8"/>
</svg>
