<svg width="28" height="28" viewBox="0 0 28 28" fill="none" xmlns="http://www.w3.org/2000/svg">
<g id="lock 1">
<g id="Group">
<g id="Group_2">
<path id="Vector" d="M23.9166 10.5H22.1666V8.16665C22.1666 3.66352 18.5032 0 14 0C9.49681 0 5.83335 3.66352 5.83335 8.16665V10.5H4.08335C3.76091 10.5 3.5 10.7609 3.5 11.0834V25.6667C3.5 26.9536 4.54645 28 5.83335 28H22.1667C23.4536 28 24.5 26.9536 24.5 25.6666V11.0834C24.5 10.7609 24.2391 10.5 23.9166 10.5ZM15.7466 22.6856C15.7648 22.8502 15.7119 23.0155 15.6014 23.1391C15.4908 23.2627 15.3325 23.3334 15.1667 23.3334H12.8334C12.6676 23.3334 12.5092 23.2627 12.3987 23.1391C12.2882 23.0155 12.2352 22.8503 12.2534 22.6856L12.6214 19.3765C12.0239 18.9418 11.6667 18.2542 11.6667 17.5C11.6667 16.2131 12.7131 15.1666 14.0001 15.1666C15.287 15.1666 16.3334 16.2131 16.3334 17.5C16.3334 18.2542 15.9762 18.9418 15.3787 19.3765L15.7466 22.6856ZM18.6666 10.5H9.33335V8.16665C9.33335 5.59349 11.4268 3.5 14 3.5C16.5732 3.5 18.6666 5.59349 18.6666 8.16665V10.5Z" fill="white"/>
</g>
</g>
</g>
</svg>
