<svg width="16" height="16" viewBox="0 0 16 16" fill="none" xmlns="http://www.w3.org/2000/svg">
<g id="map 1">
<path id="Vector" d="M7.99994 0.5C6.54125 0.5 5.1423 1.07946 4.11085 2.11091C3.0794 3.14236 2.49994 4.54131 2.49994 6C2.49994 8.905 7.39994 15.05 7.60994 15.315C7.65679 15.3734 7.71616 15.4205 7.78366 15.4529C7.85116 15.4853 7.92507 15.5021 7.99994 15.5021C8.07481 15.5021 8.14872 15.4853 8.21622 15.4529C8.28372 15.4205 8.34309 15.3734 8.38994 15.315C8.59994 15.05 13.4999 8.905 13.4999 6C13.4999 4.54131 12.9205 3.14236 11.889 2.11091C10.8576 1.07946 9.45863 0.5 7.99994 0.5ZM7.99994 7.5C7.60438 7.5 7.2177 7.3827 6.8888 7.16294C6.5599 6.94318 6.30356 6.63082 6.15218 6.26537C6.0008 5.89991 5.9612 5.49778 6.03837 5.10982C6.11554 4.72186 6.30602 4.36549 6.58573 4.08579C6.86543 3.80608 7.2218 3.6156 7.60976 3.53843C7.99772 3.46126 8.39985 3.50087 8.76531 3.65224C9.13076 3.80362 9.44312 4.05996 9.66288 4.38886C9.88264 4.71776 9.99994 5.10444 9.99994 5.5C9.99994 6.03043 9.78923 6.53914 9.41415 6.91421C9.03908 7.28929 8.53037 7.5 7.99994 7.5Z" fill="#FF9124"/>
</g>
</svg>
