<svg width="30" height="30" viewBox="0 0 30 30" fill="none" xmlns="http://www.w3.org/2000/svg">
<g id="setting 1">
<g id="Layer 2">
<path id="Vector" d="M27.3844 11.1C26.8373 11.0205 26.3153 10.8187 25.8571 10.5094C25.3988 10.2002 25.0163 9.79166 24.7378 9.31411C24.4594 8.83656 24.2923 8.30235 24.249 7.75126C24.2056 7.20018 24.2872 6.64641 24.4875 6.13121C24.6149 5.79439 24.6336 5.42616 24.5412 5.07814C24.4487 4.73012 24.2496 4.41977 23.9719 4.19058C22.7457 3.16089 21.3499 2.352 19.8469 1.79996C19.5046 1.67282 19.131 1.65693 18.7792 1.75457C18.4273 1.8522 18.1153 2.05837 17.8875 2.34371C17.5447 2.78213 17.1065 3.13673 16.6062 3.38059C16.1059 3.62446 15.5566 3.7512 15 3.7512C14.4434 3.7512 13.8942 3.62446 13.3939 3.38059C12.8936 3.13673 12.4554 2.78213 12.1125 2.34371C11.8847 2.05837 11.5727 1.8522 11.2209 1.75457C10.8691 1.65693 10.4954 1.67282 10.1531 1.79996C8.76533 2.30962 7.46776 3.03753 6.3094 3.95621C6.01741 4.18736 5.80709 4.50593 5.70924 4.86526C5.6114 5.22459 5.63116 5.6058 5.76565 5.95308C5.98198 6.48192 6.07136 7.05409 6.02662 7.62371C5.98188 8.19332 5.80426 8.74453 5.50802 9.2331C5.21178 9.72168 4.80515 10.134 4.32076 10.4371C3.83638 10.7401 3.28771 10.9254 2.71877 10.9781C2.3494 11.0176 2.00247 11.1746 1.72906 11.4261C1.45565 11.6776 1.2702 12.0102 1.20002 12.375C1.02546 13.2391 0.93752 14.1184 0.93752 15C0.936237 15.738 0.995814 16.4749 1.11565 17.2031C1.17528 17.5796 1.35728 17.9259 1.6335 18.1886C1.90972 18.4512 2.26478 18.6156 2.64377 18.6562C3.2252 18.7108 3.78511 18.9038 4.27662 19.2192C4.76813 19.5345 5.17695 19.9631 5.46886 20.4689C5.76077 20.9747 5.92728 21.543 5.95445 22.1264C5.98162 22.7097 5.86866 23.2911 5.62502 23.8218C5.46558 24.1671 5.42603 24.5557 5.51265 24.9259C5.59927 25.2962 5.8071 25.6269 6.10315 25.8656C7.322 26.8766 8.70431 27.6724 10.1906 28.2187C10.3807 28.2845 10.5801 28.3194 10.7813 28.3218C11.0571 28.3212 11.3287 28.2545 11.5734 28.1273C11.818 28.0001 12.0286 27.816 12.1875 27.5906C12.5217 27.1038 12.9696 26.7058 13.4924 26.4314C14.0152 26.1569 14.5971 26.0142 15.1875 26.0156C15.7596 26.0163 16.3237 26.1506 16.8347 26.4078C17.3458 26.6649 17.7898 27.0378 18.1313 27.4968C18.3584 27.8022 18.6802 28.0239 19.0465 28.1273C19.4127 28.2307 19.8029 28.2101 20.1563 28.0687C21.5154 27.5217 22.7806 26.7657 23.9063 25.8281C24.189 25.5943 24.3904 25.2769 24.4813 24.9214C24.5723 24.566 24.5482 24.1908 24.4125 23.85C24.192 23.3279 24.0959 22.7618 24.1317 22.1963C24.1675 21.6307 24.3342 21.0812 24.6188 20.5912C24.9034 20.1011 25.298 19.684 25.7714 19.3726C26.2449 19.0611 26.7842 18.8641 27.3469 18.7968C27.7118 18.7464 28.0511 18.5811 28.3157 18.3249C28.5803 18.0687 28.7565 17.7349 28.8188 17.3718C28.9693 16.5899 29.0509 15.7962 29.0625 15C29.0627 14.1601 28.9842 13.3221 28.8281 12.4968C28.7648 12.1418 28.5913 11.8157 28.3321 11.565C28.0729 11.3142 27.7413 11.1515 27.3844 11.1ZM19.6875 15C19.6875 15.9271 19.4126 16.8333 18.8975 17.6042C18.3825 18.3751 17.6504 18.9759 16.7938 19.3306C15.9373 19.6854 14.9948 19.7783 14.0855 19.5974C13.1762 19.4165 12.341 18.9701 11.6855 18.3145C11.0299 17.659 10.5835 16.8237 10.4026 15.9144C10.2217 15.0052 10.3145 14.0627 10.6693 13.2061C11.0241 12.3496 11.6249 11.6175 12.3958 11.1024C13.1666 10.5874 14.0729 10.3125 15 10.3125C16.2432 10.3125 17.4355 10.8063 18.3146 11.6854C19.1937 12.5645 19.6875 13.7568 19.6875 15Z" fill="white"/>
</g>
</g>
</svg>
