<svg width="389" height="128" viewBox="0 0 389 128" fill="none" xmlns="http://www.w3.org/2000/svg">
<path fill-rule="evenodd" clip-rule="evenodd" d="M110.333 212.95C110.171 205.182 113.551 198.046 118.372 192.294C108.875 176.949 95.9386 165.915 75.4477 164.931L35.9361 165.757L6.30246 166.376C4.31864 172.776 4.36293 174.895 3.1142 182.693C1.21896 193.33 0.73485 203.937 0.971067 215.236C1.20728 226.536 2.1343 237.114 4.48721 248.369C6.06073 256.107 6.81059 258.211 8.35459 264.537L37.9883 263.918L78.2054 263.077C97.9316 261.252 110.381 248.981 119.949 233.944C114.186 228.413 110.496 220.718 110.333 212.95ZM421.487 206.445C420.69 168.311 408.618 131.119 390.33 100.415C297.163 67.0375 182.174 104.06 160.75 193.527C165.087 198.382 167.336 204.693 167.484 211.755C167.632 218.817 164.942 225.232 161.518 230.249C186.676 319.449 303.818 351.618 394.788 313.685C412.483 282.229 422.284 244.58 421.487 206.445ZM215.629 421.286C128.844 423.101 45.8325 369.022 15.8827 286.988L38.4607 286.516L84.3223 285.557C114.662 284.923 129.065 264.84 139.161 241.314L139.867 241.299L140.572 241.285C141.367 245.507 143.587 250.406 145.792 254.599C193.015 352.522 298.365 360.917 378.401 340.168C333.647 394.091 287.537 416.957 215.629 421.286ZM206.829 0.395401C278.871 2.42183 325.896 23.3403 372.159 75.3607C291.311 57.2689 186.419 70.7657 143.329 170.577C141.992 174.137 139.288 179.846 138.671 184.098L137.965 184.112L137.26 184.127C126.174 160.338 110.959 141.58 80.6198 142.215L35.4637 143.159L12.8857 143.631C39.3661 59.71 120.045 2.2097 206.829 0.395401Z" fill="url(#paint0_linear_4239_28005)" fill-opacity="0.5"/>
<defs>
<linearGradient id="paint0_linear_4239_28005" x1="448.174" y1="172.061" x2="93.3713" y2="179.479" gradientUnits="userSpaceOnUse">
<stop stop-color="#3789E6" stop-opacity="0"/>
<stop offset="1" stop-color="#1C78E3"/>
</linearGradient>
</defs>
</svg>
